{"title":"Buffy.The.Vampire.Slayer.S01.Complete.Pivot.1080i.with.English.a","uid":11108902,"size":45523240998,"categoryP":"video","categoryS":"hd___tv_shows","magnet":"?xt=urn:btih:9b36cb41ff88c98da7a66eb885ce63761ba85fa5&amp;dn=Buffy.The.Vampire.Slayer.S01.Complete.Pivot.1080i.with.English.a&amp;tr=udp%3A%2F%2Ftracker.openbittorrent.com%3A80&amp;tr=udp%3A%2F%2Fopen.demonii.com%3A1337&amp;tr=udp%3A%2F%2Ftracker.coppersurfer.tk%3A6969&amp;tr=udp%3A%2F%2Fexodus.desync.com%3A6969","seeders":0,"leechers":0,"uploader":"Arcelas","files":12,"time":1411770447,"description":"New upload of Buffy Season One, this torrent has all 12 original episodes as broadcast by the Pivot channel, however I remuxed them to .mkv, and included English and Spanish subtitles, ripped from the DVDs. \n\nI will be watching for more episodes, and uploading them as they come along.\n\n[code]Format : Matroska\nFormat version : Version 4 / Version 2\nFile size : 3.45 GiB\nDuration : 43mn 25s\nOverall bit rate : 11.4 Mbps\nEncoded date : UTC 2014-09-20 00:25:01\nWriting application : mkvmerge v7.2.0 ('On Every Street') 64bit built on Sep 13 2014 15:52:10\nWriting library : libebml v1.3.0 + libmatroska v1.4.1\nDURATION : 00:42:38.932000000\nNUMBER_OF_FRAMES : 541\nNUMBER_OF_BYTES : 19848\n_STATISTICS_WRITING_APP : mkvmerge v7.2.0 ('On Every Street') 64bit built on Sep 13 2014 15:52:10\n_STATISTICS_WRITING_DATE_UTC : 2014-09-20 00:25:01\n_STATISTICS_TAGS : BPS DURATION NUMBER_OF_FRAMES NUMBER_OF_BYTES\n\nVideo\nID : 1\nFormat : AVC\nFormat/Info : Advanced Video Codec\nFormat profile : &lt;a class=&quot;__cf_email__&quot; href=&quot;/cdn-cgi/l/email-protection&quot; data-cfemail=&quot;420a2b252a020e766c72&quot;&gt;[email&amp;#160;protected]&lt;/a&gt;&lt;script data-cfhash='f9e31' type=&quot;text/javascript&quot;&gt;\n/* &lt;![CDATA[ */!function(){try{var t=&quot;currentScript&quot;in document?document.currentScript:function(){for(var t=document.getElementsByTagName(&quot;script&quot;),e=t.length;e--;)if(t[e].getAttribute(&quot;data-cfhash&quot;))return t[e]}();if(t&amp;&amp;t.previousSibling){var e,r,n,i,c=t.previousSibling,a=c.getAttribute(&quot;data-cfemail&quot;);if(a){for(e=&quot;&quot;,r=parseInt(a.substr(0,2),16),n=2;a.length-n;n+=2)i=parseInt(a.substr(n,2),16)^r,e+=String.fromCharCode(i);e=document.createTextNode(e),c.parentNode.replaceChild(e,c)}t.parentNode.removeChild(t);}}catch(u){}}()/* ]]&gt; */&lt;/script&gt;\nFormat settings, CABAC : Yes\nFormat settings, ReFrames : 4 frames\nCodec ID : V_MPEG4/ISO/AVC\nDuration : 43mn 25s\nBit rate : 10.8 Mbps\nWidth : 1 920 pixels\nHeight : 1 080 pixels\nDisplay aspect ratio : 16:9\nFrame rate mode : Constant\nFrame rate : 29.970 fps\nStandard : Component\nColor space : YUV\nChroma subsampling : 4:2:0\nBit depth : 8 bits\nScan type : MBAFF\nBits/(Pixel*Frame) : 0.173\nStream size : 3.27 GiB (95%)\nDefault : Yes\nForced : No\n\nAudio\nID : 2\nFormat : AC-3\nFormat/Info : Audio Coding 3\nMode extension : CM (complete main)\nFormat settings, Endianness : Big\nCodec ID : A_AC3\nDuration : 43mn 25s\nBit rate mode : Constant\nBit rate : 384 Kbps\nChannel(s) : 2 channels\nChannel positions : Front: L R\nSampling rate : 48.0 KHz\nBit depth : 16 bits\nCompression mode : Lossy\nStream size : 119 MiB (3%)\nLanguage : English\nDefault : Yes\nForced : No\n\nText #1\nID : 3\nFormat : UTF-8\nCodec ID : S_TEXT/UTF8\nCodec ID/Info : UTF-8 Plain Text\nLanguage : English\nDefault : Yes\nForced : No\n\nText #2\nID : 4\nFormat : UTF-8\nCodec ID : S_TEXT/UTF8\nCodec ID/Info : UTF-8 Plain Text\nDefault : No\nForced : No[/code]","torrent":{"xt":"urn:btih:9b36cb41ff88c98da7a66eb885ce63761ba85fa5","amp;dn":"Buffy.The.Vampire.Slayer.S01.Complete.Pivot.1080i.with.English.a","amp;tr":["udp%3A%2F%2Ftracker.openbittorrent.com%3A80","udp%3A%2F%2Fopen.demonii.com%3A1337","udp%3A%2F%2Ftracker.coppersurfer.tk%3A6969","udp%3A%2F%2Fexodus.desync.com%3A6969"],"infoHash":"9b36cb41ff88c98da7a66eb885ce63761ba85fa5","infoHashBuffer":{"type":"Buffer","data":[155,54,203,65,255,136,201,141,167,166,110,184,133,206,99,118,27,168,95,165]},"announce":[],"urlList":[]}}